<svg width="47" height="47" viewBox="0 0 47 47" fill="none" xmlns="http://www.w3.org/2000/svg">
<path fill-rule="evenodd" clip-rule="evenodd" d="M23.5716 18.0459L22.2845 16.7588C18.723 13.1973 12.9485 13.1973 9.38696 16.7588C5.82539 20.3204 5.82539 26.0948 9.38696 29.6564L23.5716 43.8411L37.7563 29.6564C41.3178 26.0948 41.3178 20.3204 37.7563 16.7588C34.1947 13.1972 28.4203 13.1972 24.8587 16.7588L23.5716 18.0459ZM8.09988 30.9435C3.82748 26.6711 3.82748 19.7441 8.09988 15.4717C12.3723 11.1993 19.2992 11.1993 23.5716 15.4717C27.844 11.1993 34.7709 11.1993 39.0433 15.4717C43.3158 19.7441 43.3158 26.6711 39.0434 30.9435L23.5716 46.4152L8.09988 30.9435Z" fill="black"/>
<path d="M17.3027 22.7633L19.5 28.5457L21.6823 22.7633H24V30.7492H22.2241V28.5738L22.4047 24.8124L20.087 30.7633H18.8829L16.5803 24.8264L16.7609 28.5878V30.7633H15V22.7773H17.3027V22.7633Z" fill="black"/>
<path d="M29.5071 26.3689L31.1826 22.7633H33L30.3448 27.8619V30.7633H28.6552V27.8619L26 22.7633H27.8316L29.5071 26.3689Z" fill="black"/>
</svg>
