<svg width="45" height="35" viewBox="0 0 45 35" fill="none" xmlns="http://www.w3.org/2000/svg">
<g clip-path="url(#clip0_461_19562)">
<path d="M16.5118 9.76758L18.7498 15.6509L20.9725 9.76758H23.3332V17.8928H21.5244V15.6795L21.7083 11.8524L19.3477 17.9071H18.1214L15.776 11.8667L15.96 15.6937V17.9071H14.1665V9.78186H16.5118V9.76758Z" fill="black"/>
<path d="M28.7576 13.4361L30.5527 9.76758H32.5L29.6552 14.9551V17.9071H27.8448V14.9551L25 9.76758H26.9625L28.7576 13.4361Z" fill="black"/>
<path d="M41.4555 1.65088H3.54425C2.55391 1.65088 1.7373 2.42682 1.7373 3.36786V23.9551C1.7373 24.8962 2.55391 25.6721 3.54425 25.6721H9.1736L15.1157 32.474C15.8107 33.6462 17.5829 33.6462 18.2778 32.474L24.2199 25.6721H41.4555C42.4458 25.6721 43.2624 24.8962 43.2624 23.9551V3.36786C43.2624 2.42682 42.4458 1.65088 41.4555 1.65088Z" stroke="black" stroke-width="2" stroke-miterlimit="10" stroke-linecap="round"/>
</g>
<defs>
<clipPath id="clip0_461_19562">
<rect width="45" height="35" fill="white"/>
</clipPath>
</defs>
</svg>
