<svg width="33" height="33" viewBox="0 0 33 33" fill="none" xmlns="http://www.w3.org/2000/svg">
<g clip-path="url(#clip0_461_19574)">
<path d="M16.4101 31.5581C24.7761 31.5581 31.5581 24.7761 31.5581 16.4101C31.5581 8.04417 24.7761 1.26221 16.4101 1.26221C8.04417 1.26221 1.26221 8.04417 1.26221 16.4101C1.26221 24.7761 8.04417 31.5581 16.4101 31.5581Z" stroke="black" stroke-width="2" stroke-miterlimit="10" stroke-linecap="round"/>
<path d="M14.8576 18.2277V23.4538H12.4087V9.36621H17.7988C19.3767 9.36621 20.6264 9.77016 21.5479 10.5907C22.4694 11.4112 22.9365 12.4968 22.9365 13.8475C22.9365 15.1982 22.4821 16.309 21.5732 17.0664C20.6643 17.8238 19.402 18.2151 17.7736 18.2151H14.8576V18.2277ZM14.8576 16.2585H17.7988C18.6698 16.2585 19.3389 16.0565 19.7933 15.64C20.2477 15.2234 20.475 14.6427 20.475 13.8601C20.475 13.0775 20.2477 12.4968 19.7807 12.0423C19.3136 11.5879 18.6825 11.3481 17.8619 11.3354H14.8576V16.2459V16.2585Z" fill="black"/>
</g>
<defs>
<clipPath id="clip0_461_19574">
<rect width="32.8205" height="32.8205" fill="white"/>
</clipPath>
</defs>
</svg>
