<svg width="11" height="11" viewBox="0 0 11 11" fill="none" xmlns="http://www.w3.org/2000/svg">
<g clip-path="url(#clip0_461_19610)">
<path d="M10.5001 5.95C10.4101 6.9 10.0601 7.8 9.47006 8.55C8.89006 9.3 8.10006 9.87 7.21006 10.2C6.31006 10.52 5.35006 10.59 4.42006 10.38C3.49006 10.17 2.64006 9.71 1.97006 9.03C1.30006 8.36 0.830059 7.51 0.620059 6.58C0.410059 5.65 0.470059 4.68 0.800059 3.79C1.12006 2.89 1.69006 2.11 2.45006 1.53C3.20006 0.95 4.11006 0.59 5.05006 0.5C4.50006 1.25 4.23006 2.18 4.30006 3.11C4.37006 4.04 4.77006 4.92 5.43006 5.58C6.09006 6.24 6.97006 6.64 7.90006 6.71C8.83006 6.78 9.76006 6.51 10.5101 5.96L10.5001 5.95Z" stroke="#B7B7B7" stroke-linecap="round" stroke-linejoin="round"/>
</g>
<defs>
<clipPath id="clip0_461_19610">
<rect width="11" height="11" fill="white"/>
</clipPath>
</defs>
</svg>
